<svg width="10" height="14" viewBox="0 0 10 14" fill="none" xmlns="http://www.w3.org/2000/svg">
<g opacity="0.16">
<path d="M8.58309 4.88058L1.08309 4.88058C1.00716 4.88082 0.93273 4.90176 0.867813 4.94115C0.802896 4.98054 0.749952 5.0369 0.71468 5.10414C0.679407 5.17139 0.663142 5.24698 0.667635 5.32278C0.672128 5.39858 0.697208 5.47172 0.740178 5.53433L4.49018 10.951C4.64559 11.1756 5.01976 11.1756 5.17559 10.951L8.92559 5.53433C8.969 5.47185 8.99446 5.39867 8.99919 5.32275C9.00393 5.24682 8.98777 5.17104 8.95246 5.10366C8.91716 5.03627 8.86406 4.97985 8.79894 4.94052C8.73382 4.90119 8.65917 4.88046 8.58309 4.88058Z" fill="#1A1A1A"/>
</g>
</svg>
