<svg width="27" height="20" viewBox="0 0 27 20" fill="none" xmlns="http://www.w3.org/2000/svg">
<path d="M0 1.85087C0 1.4926 0.142232 1.149 0.395406 0.895661C0.64858 0.642324 0.991958 0.5 1.35 0.5H25.65C26.008 0.5 26.3514 0.642324 26.6046 0.895661C26.8578 1.149 27 1.4926 27 1.85087C27 2.20914 26.8578 2.55274 26.6046 2.80608C26.3514 3.05942 26.008 3.20174 25.65 3.20174H1.35C0.991958 3.20174 0.64858 3.05942 0.395406 2.80608C0.142232 2.55274 0 2.20914 0 1.85087ZM0 9.99932C0 9.64105 0.142232 9.29745 0.395406 9.04411C0.64858 8.79078 0.991958 8.64845 1.35 8.64845H25.65C26.008 8.64845 26.3514 8.79078 26.6046 9.04411C26.8578 9.29745 27 9.64105 27 9.99932C27 10.3576 26.8578 10.7012 26.6046 10.9545C26.3514 11.2079 26.008 11.3502 25.65 11.3502H1.35C0.991958 11.3502 0.64858 11.2079 0.395406 10.9545C0.142232 10.7012 0 10.3576 0 9.99932ZM1.35 16.7983C0.991958 16.7983 0.64858 16.9406 0.395406 17.1939C0.142232 17.4473 0 17.7909 0 18.1491C0 18.5074 0.142232 18.851 0.395406 19.1043C0.64858 19.3577 0.991958 19.5 1.35 19.5H25.65C26.008 19.5 26.3514 19.3577 26.6046 19.1043C26.8578 18.851 27 18.5074 27 18.1491C27 17.7909 26.8578 17.4473 26.6046 17.1939C26.3514 16.9406 26.008 16.7983 25.65 16.7983H1.35Z" fill="#5DAF4C" fill-opacity="0.9"/>
</svg>
