<svg width="19" height="20" viewBox="0 0 19 20" fill="none" xmlns="http://www.w3.org/2000/svg">
<path d="M2.83301 0.966364L9.50028 7.63364L16.133 1.00091C16.2795 0.844966 16.456 0.720218 16.6519 0.634144C16.8478 0.54807 17.0591 0.502443 17.273 0.5C17.7311 0.5 18.1704 0.68198 18.4944 1.00591C18.8183 1.32983 19.0003 1.76917 19.0003 2.22727C19.0043 2.43904 18.965 2.6494 18.8848 2.84543C18.8046 3.04147 18.6852 3.21905 18.5339 3.36727L11.8148 10L18.5339 16.7191C18.8186 16.9976 18.9855 17.3747 19.0003 17.7727C19.0003 18.2308 18.8183 18.6702 18.4944 18.9941C18.1704 19.318 17.7311 19.5 17.273 19.5C17.0529 19.5091 16.8332 19.4724 16.6281 19.3921C16.4229 19.3118 16.2367 19.1897 16.0812 19.0336L9.50028 12.3664L2.85028 19.0164C2.70434 19.1671 2.52998 19.2875 2.33728 19.3705C2.14459 19.4535 1.93736 19.4975 1.72755 19.5C1.26945 19.5 0.830114 19.318 0.506187 18.9941C0.182261 18.6702 0.000281039 18.2308 0.000281039 17.7727C-0.00374609 17.561 0.035544 17.3506 0.11574 17.1546C0.195937 16.9585 0.315348 16.781 0.466645 16.6327L7.18573 10L0.466645 3.28091C0.181964 3.0024 0.0150313 2.62526 0.000281039 2.22727C0.000281039 1.76917 0.182261 1.32983 0.506187 1.00591C0.830114 0.68198 1.26945 0.5 1.72755 0.5C2.1421 0.505182 2.53937 0.672727 2.83301 0.966364Z" fill="#6CB75E"/>
</svg>
