<svg width="28" height="28" viewBox="0 0 28 28" fill="none" xmlns="http://www.w3.org/2000/svg">
<path d="M21.2711 17.3335L17.1736 15.3892C16.988 15.305 16.7854 15.2711 16.5843 15.2907C16.3832 15.3102 16.1898 15.3826 16.0218 15.5012C16.0047 15.5129 15.9885 15.5258 15.9732 15.5398L13.8316 17.4685C13.8094 17.4813 13.7847 17.4885 13.7594 17.4894C13.7341 17.4904 13.7089 17.4851 13.6859 17.474C12.3094 16.7705 10.8834 15.2698 10.2164 13.8325C10.2053 13.8085 10.1995 13.7821 10.1995 13.7554C10.1995 13.7286 10.2053 13.7022 10.2164 13.6782L12.044 11.3822C12.0571 11.3652 12.0693 11.3475 12.0804 11.329C12.1909 11.1503 12.2576 10.9454 12.2746 10.7326C12.2916 10.5198 12.2582 10.3059 12.1775 10.1102L10.3543 5.77906C10.2508 5.52338 10.0717 5.31016 9.84401 5.17139C9.6163 5.03262 9.35223 4.9758 9.09142 5.00944C7.95796 5.16722 6.91753 5.75659 6.16457 6.66743C5.41161 7.57826 4.99763 8.74823 5.00001 9.9587C5.00001 17.1498 10.5252 23 17.3168 23C18.4599 23.0023 19.5648 22.5639 20.425 21.7667C21.2852 20.9695 21.8419 19.868 21.991 18.6679C22.0227 18.393 21.9698 18.1147 21.8401 17.8743C21.7104 17.6338 21.5108 17.4442 21.2711 17.3335ZM17.3168 21.8979C11.0994 21.8979 6.04086 16.5418 6.04086 9.9587C6.03796 9.01636 6.35919 8.10513 6.94453 7.39527C7.52987 6.68541 8.33928 6.22548 9.22153 6.10142H9.24148C9.27643 6.10211 9.31037 6.11396 9.33885 6.13543C9.36733 6.1569 9.38902 6.18698 9.40108 6.22173L11.2312 10.5483C11.2417 10.5724 11.2471 10.5985 11.2471 10.625C11.2471 10.6515 11.2417 10.6776 11.2312 10.7017L9.40021 13.0032C9.38661 13.0197 9.37415 13.0372 9.36291 13.0555C9.24834 13.2407 9.18087 13.4541 9.16704 13.6751C9.15321 13.896 9.19349 14.1169 9.28398 14.3165C10.0533 15.9843 11.6406 17.6521 13.2331 18.4668C13.4227 18.562 13.6324 18.6037 13.8418 18.5876C14.0511 18.5715 14.2529 18.4982 14.4275 18.3749C14.444 18.363 14.4605 18.3501 14.4761 18.3364L16.6168 16.4077C16.6379 16.3957 16.6613 16.3886 16.6852 16.387C16.7092 16.3855 16.7332 16.3894 16.7556 16.3985L20.8539 18.3428C20.8874 18.3579 20.9155 18.3837 20.9344 18.4167C20.9532 18.4497 20.9618 18.4881 20.9589 18.5265C20.8423 19.461 20.4083 20.3187 19.7381 20.9392C19.0678 21.5596 18.2071 21.9004 17.3168 21.8979Z" fill="#5DAF4C" fill-opacity="0.9"/>
</svg>
