<svg width="18" height="18" viewBox="0 0 18 18" fill="none" xmlns="http://www.w3.org/2000/svg">
<path d="M15.996 5.99922H13.8L13.332 3.20322C13.2377 2.78018 13.0306 2.39057 12.7327 2.07577C12.4348 1.76096 12.0572 1.5327 11.64 1.41522C11.2207 1.28103 10.7842 1.20828 10.344 1.19922H7.65603C7.21587 1.20828 6.77934 1.28103 6.36003 1.41522C5.94283 1.5327 5.56524 1.76096 5.26733 2.07577C4.96942 2.39057 4.76233 2.78018 4.66803 3.20322L4.20003 5.99922H2.00403C1.90952 5.99865 1.81621 6.02041 1.7317 6.06273C1.64719 6.10506 1.57388 6.16675 1.51773 6.24278C1.46158 6.31881 1.42419 6.40703 1.40861 6.50025C1.39302 6.59347 1.39967 6.68906 1.42803 6.77922L3.68403 14.3392C3.79888 14.7044 4.02719 15.0235 4.33579 15.2501C4.64438 15.4767 5.01718 15.599 5.40003 15.5992H12.6C12.9808 15.5964 13.3509 15.473 13.6571 15.2466C13.9633 15.0202 14.1898 14.7025 14.304 14.3392L16.56 6.77922C16.5881 6.69002 16.5949 6.5955 16.58 6.5032C16.565 6.4109 16.5287 6.32337 16.4739 6.24759C16.4191 6.17182 16.3474 6.1099 16.2644 6.06678C16.1814 6.02365 16.0895 6.00052 15.996 5.99922ZM5.42403 5.99922L5.85603 3.39522C5.90339 3.18261 6.01325 2.98902 6.17149 2.83933C6.32973 2.68964 6.52912 2.5907 6.74403 2.55522C7.03923 2.46162 7.34643 2.41002 7.65603 2.39922H10.344C10.6584 2.40962 10.9664 2.46162 11.268 2.55522C11.4829 2.5907 11.6823 2.68964 11.8406 2.83933C11.9988 2.98902 12.1087 3.18261 12.156 3.39522L12.576 5.99922H5.37603H5.42403Z" fill="#5DAF4C" fill-opacity="0.9"/>
</svg>
