<svg width="24" height="24" viewBox="0 0 24 24" fill="none" xmlns="http://www.w3.org/2000/svg">
<path d="M16.05 5.15136C18.0354 5.15136 19.65 6.81338 19.65 8.85709C19.65 13.1826 14.6613 17.1403 12 19.0691C9.3387 17.1403 4.35 13.1826 4.35 8.85709C4.35 6.81338 5.9646 5.15136 7.95 5.15136C8.52808 5.1527 9.09738 5.29697 9.61 5.57201C10.1226 5.84705 10.5636 6.24483 10.8957 6.73185L12 8.35033L13.1043 6.73278C13.4363 6.24558 13.8772 5.84763 14.3899 5.57242C14.9025 5.29721 15.4718 5.15281 16.05 5.15136ZM16.05 3.76172C15.255 3.7616 14.4717 3.95894 13.7667 4.33699C13.0616 4.71504 12.4556 5.26263 12 5.93327C11.5444 5.26263 10.9384 4.71504 10.2333 4.33699C9.52826 3.95894 8.74499 3.7616 7.95 3.76172C6.63718 3.76172 5.37813 4.29855 4.44982 5.25412C3.52152 6.20968 3 7.50571 3 8.85709C3 14.1553 8.85 18.5272 12 20.7617C15.15 18.5272 21 14.1553 21 8.85709C21 8.18795 20.872 7.52537 20.6232 6.90717C20.3744 6.28898 20.0098 5.72727 19.5502 5.25412C19.0905 4.78097 18.5448 4.40565 17.9443 4.14958C17.3437 3.89351 16.7 3.76172 16.05 3.76172Z" fill="#1A1A1A"/>
</svg>
