<svg width="35" height="32" viewBox="0 0 35 32" fill="none" xmlns="http://www.w3.org/2000/svg">
<path d="M12.8227 6.53902e-05C9.81591 -0.0158788 6.88864 2.88596 8.225 6.48934H3.18182C2.33795 6.48934 1.52864 6.8253 0.931933 7.42333C0.335226 8.02135 0 8.83244 0 9.67817V12.867C0 13.2899 0.167613 13.6954 0.465966 13.9944C0.76432 14.2934 1.16897 14.4614 1.59091 14.4614H15.9091V9.67817H19.0909V14.4614H33.4091C33.831 14.4614 34.2357 14.2934 34.534 13.9944C34.8324 13.6954 35 13.2899 35 12.867V9.67817C35 8.83244 34.6648 8.02135 34.0681 7.42333C33.4714 6.8253 32.6621 6.48934 31.8182 6.48934H26.775C28.6364 1.2756 21.6364 -2.4075 18.4068 2.08875L17.5 3.30051L16.5932 2.05686C15.5909 0.637832 14.2068 0.0160096 12.8227 6.53902e-05ZM12.7273 3.30051C14.1432 3.30051 14.8591 5.02248 13.8568 6.02696C12.8545 7.03144 11.1364 6.31395 11.1364 4.89492C11.1364 4.47206 11.304 4.06651 11.6023 3.7675C11.9007 3.46849 12.3053 3.30051 12.7273 3.30051ZM22.2727 3.30051C23.6886 3.30051 24.4045 5.02248 23.4023 6.02696C22.4 7.03144 20.6818 6.31395 20.6818 4.89492C20.6818 4.47206 20.8494 4.06651 21.1478 3.7675C21.4461 3.46849 21.8508 3.30051 22.2727 3.30051ZM1.59091 16.0558V28.8112C1.59091 29.6569 1.92614 30.468 2.52284 31.066C3.11955 31.664 3.92886 32 4.77273 32H30.2273C31.0711 32 31.8805 31.664 32.4772 31.066C33.0739 30.468 33.4091 29.6569 33.4091 28.8112V16.0558H19.0909V28.8112H15.9091V16.0558H1.59091Z" fill="#FEBC4B"/>
</svg>
