<svg width="49" height="32" viewBox="0 0 49 32" fill="none" xmlns="http://www.w3.org/2000/svg">
<g clip-path="url(#clip0_392_22466)">
<path fill-rule="evenodd" clip-rule="evenodd" d="M6.3913 3.84V6.4H3.83478C2.81773 6.4 1.84234 6.80457 1.12318 7.52471C0.404021 8.24485 0 9.22157 0 10.24V28.16C0 29.1784 0.404021 30.1552 1.12318 30.8753C1.84234 31.5954 2.81773 32 3.83478 32H38.7739C39.2775 32 39.7762 31.9007 40.2414 31.7077C40.7067 31.5147 41.1294 31.2319 41.4855 30.8753C41.8416 30.5187 42.1241 30.0954 42.3168 29.6295C42.5095 29.1636 42.6087 28.6643 42.6087 28.16V25.6H45.1652C47.2786 25.6 49 23.8763 49 21.76V3.84C49 1.72373 47.2786 0 45.1652 0H10.2261C8.1127 0 6.3913 1.72373 6.3913 3.84ZM10.6522 4.26667V6.4H38.7739C39.2775 6.4 39.7762 6.49933 40.2414 6.6923C40.7067 6.88528 41.1294 7.16813 41.4855 7.52471C41.8416 7.88129 42.1241 8.30461 42.3168 8.7705C42.5095 9.23639 42.6087 9.73572 42.6087 10.24V21.3333H44.7391V4.26667H10.6522ZM17.0435 19.2C17.0435 18.0684 17.4924 16.9832 18.2915 16.183C19.0905 15.3829 20.1743 14.9333 21.3043 14.9333C22.4344 14.9333 23.5182 15.3829 24.3172 16.183C25.1163 16.9832 25.5652 18.0684 25.5652 19.2C25.5652 20.3316 25.1163 21.4168 24.3172 22.217C23.5182 23.0171 22.4344 23.4667 21.3043 23.4667C20.1743 23.4667 19.0905 23.0171 18.2915 22.217C17.4924 21.4168 17.0435 20.3316 17.0435 19.2Z" fill="#6CB75E"/>
</g>
<defs>
<clipPath id="clip0_392_22466">
<rect width="49" height="32" fill="white"/>
</clipPath>
</defs>
</svg>
