<svg width="48" height="49" viewBox="0 0 48 49" fill="none" xmlns="http://www.w3.org/2000/svg">
<g clip-path="url(#clip0_392_22586)">
<path d="M24 0.753418C10.752 0.753418 0 11.5054 0 24.7534C0 38.0014 10.752 48.7534 24 48.7534C37.248 48.7534 48 38.0014 48 24.7534C48 11.5054 37.248 0.753418 24 0.753418ZM35.136 17.0734C34.776 20.8654 33.216 30.0814 32.424 34.3294C32.088 36.1294 31.416 36.7294 30.792 36.8014C29.4 36.9214 28.344 35.8894 27 35.0014C24.888 33.6094 23.688 32.7454 21.648 31.4014C19.272 29.8414 20.808 28.9774 22.176 27.5854C22.536 27.2254 28.68 21.6334 28.8 21.1294C28.8167 21.0531 28.8145 20.9738 28.7935 20.8985C28.7726 20.8233 28.7337 20.7542 28.68 20.6974C28.536 20.5774 28.344 20.6254 28.176 20.6494C27.96 20.6974 24.6 22.9294 18.048 27.3454C17.088 27.9934 16.224 28.3294 15.456 28.3054C14.592 28.2814 12.96 27.8254 11.736 27.4174C10.224 26.9374 9.048 26.6734 9.144 25.8334C9.192 25.4014 9.792 24.9694 10.92 24.5134C17.928 21.4654 22.584 19.4494 24.912 18.4894C31.584 15.7054 32.952 15.2254 33.864 15.2254C34.056 15.2254 34.512 15.2734 34.8 15.5134C35.04 15.7054 35.112 15.9694 35.136 16.1614C35.112 16.3054 35.16 16.7374 35.136 17.0734Z" fill="#4B87FE"/>
</g>
<defs>
<clipPath id="clip0_392_22586">
<rect width="48" height="48" fill="white" transform="translate(0 0.753418)"/>
</clipPath>
</defs>
</svg>
