<svg width="48" height="49" viewBox="0 0 48 49" fill="none" xmlns="http://www.w3.org/2000/svg">
<path d="M24.002 0.753418C37.2572 0.753418 48.002 11.4982 48.002 24.7534C48.002 38.0086 37.2572 48.7534 24.002 48.7534C19.7606 48.7607 15.5938 47.6383 11.93 45.5014L0.0115902 48.7534L3.25639 36.8302C1.11789 33.1653 -0.00544278 28.9967 0.00198977 24.7534C0.00198977 11.4982 10.7468 0.753418 24.002 0.753418ZM15.8228 13.4734L15.3428 13.4926C15.0324 13.514 14.7292 13.5955 14.45 13.7326C14.1898 13.8802 13.9521 14.0645 13.7444 14.2798C13.4564 14.551 13.2932 14.7862 13.118 15.0142C12.2303 16.1684 11.7523 17.5854 11.7596 19.0414C11.7644 20.2174 12.0716 21.3622 12.5516 22.4326C13.5332 24.5974 15.1484 26.8894 17.2796 29.0134C17.7932 29.5246 18.2972 30.0382 18.8396 30.5158C21.4878 32.8472 24.6435 34.5285 28.0556 35.4262L29.4188 35.635C29.8628 35.659 30.3068 35.6254 30.7532 35.6038C31.452 35.567 32.1344 35.3778 32.7524 35.0494C33.0664 34.887 33.3731 34.7109 33.6716 34.5214C33.6716 34.5214 33.7732 34.4526 33.9716 34.3054C34.2956 34.0654 34.4948 33.895 34.7636 33.6142C34.9652 33.4062 35.1332 33.1646 35.2676 32.8894C35.4548 32.4982 35.642 31.7518 35.7188 31.1302C35.7764 30.655 35.7596 30.3958 35.7524 30.235C35.7428 29.9782 35.5292 29.7118 35.2964 29.599L33.8996 28.9726C33.8996 28.9726 31.8116 28.063 30.5348 27.4822C30.4011 27.424 30.258 27.3907 30.1124 27.3838C29.9482 27.3666 29.7822 27.385 29.6256 27.4376C29.4691 27.4901 29.3257 27.5758 29.2052 27.6886C29.1932 27.6838 29.0324 27.8206 27.2972 29.923C27.1976 30.0568 27.0604 30.158 26.9031 30.2136C26.7458 30.2691 26.5755 30.2766 26.414 30.235C26.2576 30.1933 26.1044 30.1404 25.9556 30.0766C25.658 29.9518 25.5548 29.9038 25.3508 29.8174C23.9729 29.2172 22.6974 28.405 21.5708 27.4102C21.2684 27.1462 20.9876 26.8582 20.6996 26.5798C19.7555 25.6755 18.9326 24.6526 18.2516 23.5366L18.11 23.3086C18.0098 23.1545 17.9277 22.9895 17.8652 22.8166C17.774 22.4638 18.0116 22.1806 18.0116 22.1806C18.0116 22.1806 18.5948 21.5422 18.866 21.1966C19.13 20.8606 19.3532 20.5342 19.4972 20.3014C19.7804 19.8454 19.8692 19.3774 19.7204 19.015C19.0484 17.3734 18.354 15.7406 17.6372 14.1166C17.4956 13.795 17.0756 13.5646 16.694 13.519C16.5644 13.503 16.4348 13.4902 16.3052 13.4806C15.9829 13.4621 15.6598 13.4653 15.338 13.4902L15.8228 13.4734Z" fill="#3CC922"/>
</svg>
