<svg width="24" height="25" viewBox="0 0 24 25" fill="none" xmlns="http://www.w3.org/2000/svg">
<path d="M2.99997 4.40444C2.99997 4.23398 3.06769 4.0705 3.18822 3.94997C3.30876 3.82943 3.47224 3.76172 3.6427 3.76172H4.20574C5.14027 3.76172 5.6776 4.36973 5.98868 4.97646C6.20078 5.39166 6.35375 5.89812 6.48101 6.33774H19.7149C19.9135 6.3378 20.1094 6.38388 20.2872 6.47238C20.4651 6.56088 20.62 6.68937 20.7398 6.84779C20.8596 7.00621 20.9411 7.19024 20.9778 7.38543C21.0145 7.58063 21.0055 7.78168 20.9515 7.97282L19.0284 14.7535C18.8755 15.2915 18.5512 15.7649 18.1049 16.1019C17.6586 16.439 17.1145 16.6213 16.5552 16.6212H10.0263C9.46236 16.6214 8.91398 16.4362 8.46567 16.094C8.01735 15.7519 7.69398 15.2718 7.54538 14.7278L6.72011 11.7006L6.70725 11.6595L5.38322 7.16299L5.25468 6.7298C5.12613 6.28503 5.01301 5.89169 4.84333 5.56133C4.63894 5.16285 4.45126 5.04716 4.20574 5.04716H3.6427C3.47224 5.04716 3.30876 4.97944 3.18822 4.85891C3.06769 4.73838 2.99997 4.5749 2.99997 4.40444ZM7.94644 11.3124L8.78585 14.3923C8.86027 14.6642 9.02201 14.9041 9.24615 15.075C9.4703 15.246 9.74443 15.3385 10.0263 15.3384H16.5565C16.836 15.3381 17.1078 15.2467 17.3307 15.0781C17.5536 14.9095 17.7155 14.6728 17.7918 14.4039L19.7149 7.62318H6.86022L7.94644 11.3124ZM12.0021 19.8336C12.0021 20.3449 11.7989 20.8354 11.4373 21.197C11.0757 21.5586 10.5853 21.7617 10.0739 21.7617C9.5625 21.7617 9.07205 21.5586 8.71045 21.197C8.34884 20.8354 8.14569 20.3449 8.14569 19.8336C8.14569 19.3222 8.34884 18.8317 8.71045 18.4701C9.07205 18.1085 9.5625 17.9054 10.0739 17.9054C10.5853 17.9054 11.0757 18.1085 11.4373 18.4701C11.7989 18.8317 12.0021 19.3222 12.0021 19.8336ZM10.7166 19.8336C10.7166 19.6631 10.6489 19.4996 10.5284 19.3791C10.4078 19.2586 10.2444 19.1908 10.0739 19.1908C9.90343 19.1908 9.73994 19.2586 9.61941 19.3791C9.49887 19.4996 9.43116 19.6631 9.43116 19.8336C9.43116 20.004 9.49887 20.1675 9.61941 20.288C9.73994 20.4086 9.90343 20.4763 10.0739 20.4763C10.2444 20.4763 10.4078 20.4086 10.5284 20.288C10.6489 20.1675 10.7166 20.004 10.7166 19.8336ZM18.4294 19.8336C18.4294 20.3449 18.2263 20.8354 17.8647 21.197C17.5031 21.5586 17.0126 21.7617 16.5012 21.7617C15.9898 21.7617 15.4994 21.5586 15.1378 21.197C14.7762 20.8354 14.573 20.3449 14.573 19.8336C14.573 19.3222 14.7762 18.8317 15.1378 18.4701C15.4994 18.1085 15.9898 17.9054 16.5012 17.9054C17.0126 17.9054 17.5031 18.1085 17.8647 18.4701C18.2263 18.8317 18.4294 19.3222 18.4294 19.8336ZM17.144 19.8336C17.144 19.6631 17.0762 19.4996 16.9557 19.3791C16.8352 19.2586 16.6717 19.1908 16.5012 19.1908C16.3308 19.1908 16.1673 19.2586 16.0467 19.3791C15.9262 19.4996 15.8585 19.6631 15.8585 19.8336C15.8585 20.004 15.9262 20.1675 16.0467 20.288C16.1673 20.4086 16.3308 20.4763 16.5012 20.4763C16.6717 20.4763 16.8352 20.4086 16.9557 20.288C17.0762 20.1675 17.144 20.004 17.144 19.8336Z" fill="white"/>
</svg>
