<svg width="25" height="24" viewBox="0 0 25 24" fill="none" xmlns="http://www.w3.org/2000/svg">
<path d="M16.55 4C15.755 3.99988 14.9717 4.19722 14.2667 4.57527C13.5616 4.95332 12.9556 5.50091 12.5 6.17155C12.0444 5.50091 11.4384 4.95332 10.7333 4.57527C10.0283 4.19722 9.24499 3.99988 8.45 4C7.13718 4 5.87813 4.53683 4.94982 5.4924C4.02152 6.44797 3.5 7.74399 3.5 9.09537C3.5 14.3936 9.35 18.7654 12.5 21C15.65 18.7654 21.5 14.3936 21.5 9.09537C21.5 8.42623 21.372 7.76365 21.1232 7.14546C20.8744 6.52726 20.5098 5.96555 20.0502 5.4924C19.5905 5.01925 19.0448 4.64393 18.4443 4.38786C17.8437 4.1318 17.2 4 16.55 4Z" fill="#FF0000"/>
</svg>
