<svg width="24" height="25" viewBox="0 0 24 25" fill="none" xmlns="http://www.w3.org/2000/svg">
<path d="M16.05 5.91308C18.0354 5.91308 19.65 7.5751 19.65 9.61881C19.65 13.9443 14.6613 17.902 12 19.8308C9.3387 17.902 4.35 13.9443 4.35 9.61881C4.35 7.5751 5.9646 5.91308 7.95 5.91308C8.52808 5.91442 9.09738 6.05869 9.61 6.33373C10.1226 6.60877 10.5636 7.00654 10.8957 7.49357L12 9.11205L13.1043 7.4945C13.4363 7.0073 13.8772 6.60935 14.3899 6.33414C14.9025 6.05893 15.4718 5.91453 16.05 5.91308ZM16.05 4.52344C15.255 4.52332 14.4717 4.72066 13.7667 5.09871C13.0616 5.47675 12.4556 6.02435 12 6.69499C11.5444 6.02435 10.9384 5.47675 10.2333 5.09871C9.52826 4.72066 8.74499 4.52332 7.95 4.52344C6.63718 4.52344 5.37813 5.06027 4.44982 6.01584C3.52152 6.9714 3 8.26743 3 9.61881C3 14.9171 8.85 19.2889 12 21.5234C15.15 19.2889 21 14.9171 21 9.61881C21 8.94967 20.872 8.28709 20.6232 7.66889C20.3744 7.05069 20.0098 6.48898 19.5502 6.01584C19.0905 5.54269 18.5448 5.16737 17.9443 4.9113C17.3437 4.65523 16.7 4.52344 16.05 4.52344Z" fill="#313131"/>
</svg>
