<svg width="28" height="24" viewBox="0 0 28 24" fill="none" xmlns="http://www.w3.org/2000/svg">
<path d="M4.22222 5.21429L11.6876 10.8146L11.69 10.817C12.5187 11.4205 12.933 11.7229 13.3877 11.8394C13.7893 11.9427 14.2107 11.9427 14.6123 11.8394C15.067 11.7229 15.4826 11.4205 16.3137 10.8146C16.3137 10.8146 21.1011 7.16443 23.7778 5.21429M3 17.1143V7.88571C3 6.52571 3 5.84571 3.26644 5.326C3.50111 4.86821 3.87389 4.49786 4.33467 4.26471C4.85778 4 5.54222 4 6.91111 4H21.0889C22.4578 4 23.1422 4 23.6641 4.26471C24.1249 4.49786 24.4989 4.86821 24.7336 5.326C25 5.8445 25 6.5245 25 7.88207V17.1191C25 18.4767 25 19.1543 24.7336 19.674C24.4989 20.1311 24.1245 20.5027 23.6641 20.7353C23.1422 21 22.459 21 21.0926 21H6.90744C5.541 21 4.85656 21 4.33467 20.7353C3.87474 20.5025 3.5008 20.1309 3.26644 19.674C3 19.1543 3 18.4743 3 17.1143Z" stroke="#6DB75E" stroke-width="2" stroke-linecap="round" stroke-linejoin="round"/>
</svg>
