<svg width="24" height="24" viewBox="0 0 24 24" fill="none" xmlns="http://www.w3.org/2000/svg">
<path d="M14.8255 13.0084C15.2797 13.15 15.7148 13.3459 16.1214 13.5917L16.0953 13.5767C16.5396 13.7725 16.9234 14.0017 17.2736 14.2709L17.261 14.2617C17.2783 14.3134 17.2873 14.3698 17.2878 14.4309L17.287 14.4575V14.4567C17.2744 14.8142 17.1946 15.15 17.0594 15.4559L17.0661 15.4384C16.8721 15.8242 16.5488 16.1217 16.1533 16.28L16.1415 16.2842C15.7325 16.4972 15.2797 16.6144 14.818 16.6267H14.8129C13.9316 16.5151 13.0798 16.2374 12.3036 15.8084L12.3397 15.8267C11.5148 15.4559 10.7647 14.9395 10.126 14.3025L10.1251 14.3017C9.4285 13.5818 8.79679 12.8027 8.23725 11.9734L8.19777 11.9117C7.64353 11.1911 7.32155 10.3212 7.27399 9.41588L7.27315 9.40504V9.30171C7.28537 8.9149 7.37686 8.5346 7.54203 8.18402C7.70721 7.83344 7.94261 7.5199 8.23389 7.26254L8.23641 7.26004C8.41629 7.0822 8.65856 6.98036 8.91245 6.97588H8.91329C8.99783 6.9781 9.07957 6.98504 9.15851 6.99671L9.1476 6.99504C9.22066 7.00588 9.30548 7.01254 9.39282 7.01421H9.39534C9.51762 7.00228 9.64032 7.03228 9.74302 7.09921L9.74134 7.09838C9.8312 7.19671 9.90006 7.31588 9.94121 7.44671L9.94289 7.45338C10.0123 7.6256 10.1556 8.00449 10.3729 8.59004C10.4862 8.85171 10.5971 9.17421 10.6861 9.50588L10.6979 9.55838C10.6375 9.84848 10.4797 10.1097 10.2503 10.2992L10.2477 10.3009C9.94821 10.6153 9.79845 10.8153 9.79845 10.9009C9.80184 10.971 9.82545 11.0387 9.86647 11.0959L9.86563 11.095C10.1899 11.7616 10.6391 12.3609 11.1892 12.8609L11.1934 12.865C11.7695 13.3784 12.4144 13.8103 13.1098 14.1484L13.1594 14.17C13.2448 14.2242 13.3428 14.2555 13.444 14.2609H13.4457C13.5762 14.2609 13.8108 14.052 14.1495 13.6342C14.4882 13.2164 14.7133 13.0075 14.8247 13.0075L14.8255 13.0084ZM12.1827 19.855H12.2011C13.304 19.8575 14.3951 19.6307 15.4042 19.1892L15.3529 19.2092C17.3315 18.3809 18.8742 16.85 19.6889 14.9392L19.709 14.8867C20.1205 13.9592 20.3599 12.8775 20.3599 11.7409C20.3599 10.6042 20.1205 9.52254 19.6889 8.54338L19.709 8.59504C18.8742 6.63171 17.3315 5.10088 15.4058 4.29254L15.3529 4.27254C14.4182 3.86421 13.3282 3.62671 12.1827 3.62671C11.0372 3.62671 9.94709 3.86421 8.96032 4.29254L9.01239 4.27254C7.0338 5.10088 5.49108 6.63171 4.67646 8.54254L4.65631 8.59504C4.2237 9.59161 4.00216 10.6658 4.00546 11.7509C4.00275 13.4666 4.55596 15.1377 5.58346 16.5175L5.5675 16.4959L4.53874 19.5067L7.68969 18.5117C9.00599 19.3914 10.5579 19.8594 12.1449 19.855H12.1843H12.1827ZM12.1827 2.00004H12.2104C13.5776 2.00004 14.8776 2.28504 16.0525 2.79921L15.9912 2.77504C18.3636 3.77254 20.2137 5.60838 21.1946 7.89921L21.219 7.96254C21.7128 9.07671 22 10.3759 22 11.7417C22 13.1075 21.7128 14.4067 21.1946 15.5825L21.219 15.5209C20.2137 17.875 18.3636 19.7109 16.055 20.6842L15.9912 20.7084C14.8768 21.1984 13.5767 21.4834 12.2095 21.4834H12.181H12.1827H12.1381C10.409 21.4834 8.78564 21.0325 7.38148 20.2434L7.42935 20.2684L2 22L3.77115 16.7675C2.84642 15.2585 2.3599 13.5253 2.36532 11.7592C2.36532 10.3875 2.65253 9.08254 3.17069 7.90004L3.14634 7.96254C4.15159 5.60838 6.00168 3.77254 8.31031 2.79921L8.37413 2.77504C9.5671 2.25997 10.8548 1.99608 12.1558 2.00004H12.1827Z" fill="#6DB75E"/>
</svg>
