<svg width="24" height="24" viewBox="0 0 24 24" fill="none" xmlns="http://www.w3.org/2000/svg">
<path d="M7.53237 3C8.05036 3 10.1223 7.66187 10.1223 8.17986C10.1223 9.21583 8.56835 10.2518 8.05036 11.2878C7.53237 12.3237 8.56835 13.3597 9.60432 14.3957C10.0083 14.7997 11.6763 16.4676 12.7122 15.9496C13.7482 15.4317 14.7842 13.8777 15.8201 13.8777C16.3381 13.8777 21 15.9496 21 16.4676C21 18.5396 19.446 20.0935 17.8921 20.6115C16.3381 21.1295 15.3022 21.1295 13.2302 20.6115C11.1583 20.0935 9.60432 19.5755 7.01439 16.9856C4.42446 14.3957 3.90647 12.8417 3.38849 10.7698C2.8705 8.69784 2.8705 7.66187 3.38849 6.10791C3.90647 4.55396 5.46043 3 7.53237 3Z" stroke="#6DB75E" stroke-width="2" stroke-linecap="round" stroke-linejoin="round"/>
</svg>
