<svg width="41" height="41" viewBox="0 0 41 41" fill="none" xmlns="http://www.w3.org/2000/svg">
<path fill-rule="evenodd" clip-rule="evenodd" d="M2.9297 3.428C0 6.36 0 11.072 0 20.5C0 29.928 0 34.642 2.9297 37.57C5.86341 40.5 10.5781 40.5 20.0116 40.5C29.4451 40.5 34.1618 40.5 37.0916 37.57C40.0233 34.644 40.0233 29.928 40.0233 20.5C40.0233 11.072 40.0233 6.358 37.0916 3.428C34.1638 0.5 29.4451 0.5 20.0116 0.5C10.5781 0.5 5.86141 0.5 2.9297 3.428ZM27.0757 13.44C27.3568 13.7213 27.5147 14.1025 27.5147 14.5C27.5147 14.8975 27.3568 15.2787 27.0757 15.56L15.0688 27.56C14.7842 27.825 14.4079 27.9692 14.0191 27.9624C13.6303 27.9555 13.2593 27.7981 12.9843 27.5232C12.7093 27.2484 12.5518 26.8776 12.5449 26.489C12.5381 26.1004 12.6824 25.7243 12.9475 25.44L24.9545 13.44C25.2359 13.1591 25.6174 13.0013 26.0151 13.0013C26.4128 13.0013 26.7943 13.1591 27.0757 13.44ZM17.0099 15.5C17.0099 16.0304 16.799 16.5391 16.4238 16.9142C16.0485 17.2893 15.5395 17.5 15.0087 17.5C14.478 17.5 13.969 17.2893 13.5937 16.9142C13.2184 16.5391 13.0076 16.0304 13.0076 15.5C13.0076 14.9696 13.2184 14.4609 13.5937 14.0858C13.969 13.7107 14.478 13.5 15.0087 13.5C15.5395 13.5 16.0485 13.7107 16.4238 14.0858C16.799 14.4609 17.0099 14.9696 17.0099 15.5ZM25.0145 27.5C25.5453 27.5 26.0543 27.2893 26.4296 26.9142C26.8049 26.5391 27.0157 26.0304 27.0157 25.5C27.0157 24.9696 26.8049 24.4609 26.4296 24.0858C26.0543 23.7107 25.5453 23.5 25.0145 23.5C24.4838 23.5 23.9748 23.7107 23.5995 24.0858C23.2242 24.4609 23.0134 24.9696 23.0134 25.5C23.0134 26.0304 23.2242 26.5391 23.5995 26.9142C23.9748 27.2893 24.4838 27.5 25.0145 27.5Z" fill="#5DAF4C" fill-opacity="0.9"/>
</svg>
